<?xml version="1.0" encoding="utf-8"?>
<svg version="1.1" xmlns:xlink="http://www.w3.org/1999/xlink" width="12px" height="12px" viewBox="301 265  12 12" xmlns="http://www.w3.org/2000/svg">
  <path d="M 301.5 268  A 2.5 2.5 0 0 1 304 265.5 L 310 265.5  A 2.5 2.5 0 0 1 312.5 268 L 312.5 274  A 2.5 2.5 0 0 1 310 276.5 L 304 276.5  A 2.5 2.5 0 0 1 301.5 274 L 301.5 268  Z " fill-rule="nonzero" fill="#f0f0f0" stroke="none" />
  <path d="M 301.5 268  A 2.5 2.5 0 0 1 304 265.5 L 310 265.5  A 2.5 2.5 0 0 1 312.5 268 L 312.5 274  A 2.5 2.5 0 0 1 310 276.5 L 304 276.5  A 2.5 2.5 0 0 1 301.5 274 L 301.5 268  Z " stroke-width="1" stroke="#d7d7d7" fill="none" />
</svg>