<?xml version="1.0" encoding="utf-8"?>
<svg version="1.1" xmlns:xlink="http://www.w3.org/1999/xlink" width="12px" height="12px" viewBox="301 185  12 12" xmlns="http://www.w3.org/2000/svg">
  <path d="M 301.5 188  A 2.5 2.5 0 0 1 304 185.5 L 310 185.5  A 2.5 2.5 0 0 1 312.5 188 L 312.5 194  A 2.5 2.5 0 0 1 310 196.5 L 304 196.5  A 2.5 2.5 0 0 1 301.5 194 L 301.5 188  Z " fill-rule="nonzero" fill="#f0f0f0" stroke="none" />
  <path d="M 301.5 188  A 2.5 2.5 0 0 1 304 185.5 L 310 185.5  A 2.5 2.5 0 0 1 312.5 188 L 312.5 194  A 2.5 2.5 0 0 1 310 196.5 L 304 196.5  A 2.5 2.5 0 0 1 301.5 194 L 301.5 188  Z " stroke-width="1" stroke="#d7d7d7" fill="none" />
  <path d="M 303.571428571429 191  L 306.142857142857 193.571428571429  L 310.428571428571 187.571428571429  " stroke-width="2.57142857142857" stroke="#d7d7d7" fill="none" />
</svg>