<?xml version="1.0" encoding="utf-8"?>
<svg version="1.1" xmlns:xlink="http://www.w3.org/1999/xlink" width="12px" height="12px" viewBox="301 265  12 12" xmlns="http://www.w3.org/2000/svg">
  <path d="M 301.5 268  A 2.5 2.5 0 0 1 304 265.5 L 310 265.5  A 2.5 2.5 0 0 1 312.5 268 L 312.5 274  A 2.5 2.5 0 0 1 310 276.5 L 304 276.5  A 2.5 2.5 0 0 1 301.5 274 L 301.5 268  Z " fill-rule="nonzero" fill="#ffffff" stroke="none" />
  <path d="M 301.5 268  A 2.5 2.5 0 0 1 304 265.5 L 310 265.5  A 2.5 2.5 0 0 1 312.5 268 L 312.5 274  A 2.5 2.5 0 0 1 310 276.5 L 304 276.5  A 2.5 2.5 0 0 1 301.5 274 L 301.5 268  Z " stroke-width="1" stroke="#1e5df8" fill="none" />
  <path d="M 303.571428571429 271  L 306.142857142857 273.571428571429  L 310.428571428571 267.571428571429  " stroke-width="2.57142857142857" stroke="#1e5df8" fill="none" />
</svg>