<?xml version="1.0" encoding="utf-8"?>
<svg version="1.1" xmlns:xlink="http://www.w3.org/1999/xlink" width="12px" height="12px" viewBox="301 239  12 12" xmlns="http://www.w3.org/2000/svg">
  <path d="M 301.5 242  A 2.5 2.5 0 0 1 304 239.5 L 310 239.5  A 2.5 2.5 0 0 1 312.5 242 L 312.5 248  A 2.5 2.5 0 0 1 310 250.5 L 304 250.5  A 2.5 2.5 0 0 1 301.5 248 L 301.5 242  Z " fill-rule="nonzero" fill="#f0f0f0" stroke="none" />
  <path d="M 301.5 242  A 2.5 2.5 0 0 1 304 239.5 L 310 239.5  A 2.5 2.5 0 0 1 312.5 242 L 312.5 248  A 2.5 2.5 0 0 1 310 250.5 L 304 250.5  A 2.5 2.5 0 0 1 301.5 248 L 301.5 242  Z " stroke-width="1" stroke="#d7d7d7" fill="none" />
</svg>