<?xml version="1.0" encoding="utf-8"?>
<svg version="1.1" xmlns:xlink="http://www.w3.org/1999/xlink" width="12px" height="12px" viewBox="361 150  12 12" xmlns="http://www.w3.org/2000/svg">
  <path d="M 361.5 153  A 2.5 2.5 0 0 1 364 150.5 L 370 150.5  A 2.5 2.5 0 0 1 372.5 153 L 372.5 159  A 2.5 2.5 0 0 1 370 161.5 L 364 161.5  A 2.5 2.5 0 0 1 361.5 159 L 361.5 153  Z " fill-rule="nonzero" fill="#ffffff" stroke="none" />
  <path d="M 361.5 153  A 2.5 2.5 0 0 1 364 150.5 L 370 150.5  A 2.5 2.5 0 0 1 372.5 153 L 372.5 159  A 2.5 2.5 0 0 1 370 161.5 L 364 161.5  A 2.5 2.5 0 0 1 361.5 159 L 361.5 153  Z " stroke-width="1" stroke="#1e5df8" fill="none" />
  <path d="M 363.571428571429 156  L 366.142857142857 158.571428571429  L 370.428571428571 152.571428571429  " stroke-width="2.57142857142857" stroke="#1e5df8" fill="none" />
</svg>