<?xml version="1.0" encoding="utf-8"?>
<svg version="1.1" xmlns:xlink="http://www.w3.org/1999/xlink" width="12px" height="12px" viewBox="396 43  12 12" xmlns="http://www.w3.org/2000/svg">
  <path d="M 396.5 46  A 2.5 2.5 0 0 1 399 43.5 L 405 43.5  A 2.5 2.5 0 0 1 407.5 46 L 407.5 52  A 2.5 2.5 0 0 1 405 54.5 L 399 54.5  A 2.5 2.5 0 0 1 396.5 52 L 396.5 46  Z " fill-rule="nonzero" fill="#ffffff" stroke="none" />
  <path d="M 396.5 46  A 2.5 2.5 0 0 1 399 43.5 L 405 43.5  A 2.5 2.5 0 0 1 407.5 46 L 407.5 52  A 2.5 2.5 0 0 1 405 54.5 L 399 54.5  A 2.5 2.5 0 0 1 396.5 52 L 396.5 46  Z " stroke-width="1" stroke="#1e5df8" fill="none" />
  <path d="M 398.571428571429 49  L 401.142857142857 51.5714285714286  L 405.428571428571 45.5714285714286  " stroke-width="2.57142857142857" stroke="#1e5df8" fill="none" />
</svg>