<?xml version="1.0" encoding="utf-8"?>
<svg version="1.1" xmlns:xlink="http://www.w3.org/1999/xlink" width="12px" height="12px" viewBox="361 177  12 12" xmlns="http://www.w3.org/2000/svg">
  <path d="M 361.5 180  A 2.5 2.5 0 0 1 364 177.5 L 370 177.5  A 2.5 2.5 0 0 1 372.5 180 L 372.5 186  A 2.5 2.5 0 0 1 370 188.5 L 364 188.5  A 2.5 2.5 0 0 1 361.5 186 L 361.5 180  Z " fill-rule="nonzero" fill="#ffffff" stroke="none" />
  <path d="M 361.5 180  A 2.5 2.5 0 0 1 364 177.5 L 370 177.5  A 2.5 2.5 0 0 1 372.5 180 L 372.5 186  A 2.5 2.5 0 0 1 370 188.5 L 364 188.5  A 2.5 2.5 0 0 1 361.5 186 L 361.5 180  Z " stroke-width="1" stroke="#d7d7d7" fill="none" />
  <path d="M 363.571428571429 183  L 366.142857142857 185.571428571429  L 370.428571428571 179.571428571429  " stroke-width="2.57142857142857" stroke="#d7d7d7" fill="none" />
</svg>