<?xml version="1.0" encoding="utf-8"?>
<svg version="1.1" xmlns:xlink="http://www.w3.org/1999/xlink" width="12px" height="12px" viewBox="361 43  12 12" xmlns="http://www.w3.org/2000/svg">
  <path d="M 361.5 46  A 2.5 2.5 0 0 1 364 43.5 L 370 43.5  A 2.5 2.5 0 0 1 372.5 46 L 372.5 52  A 2.5 2.5 0 0 1 370 54.5 L 364 54.5  A 2.5 2.5 0 0 1 361.5 52 L 361.5 46  Z " fill-rule="nonzero" fill="#ffffff" stroke="none" />
  <path d="M 361.5 46  A 2.5 2.5 0 0 1 364 43.5 L 370 43.5  A 2.5 2.5 0 0 1 372.5 46 L 372.5 52  A 2.5 2.5 0 0 1 370 54.5 L 364 54.5  A 2.5 2.5 0 0 1 361.5 52 L 361.5 46  Z " stroke-width="1" stroke="#d7d7d7" fill="none" />
  <path d="M 363.571428571429 49  L 366.142857142857 51.5714285714286  L 370.428571428571 45.5714285714286  " stroke-width="2.57142857142857" stroke="#d7d7d7" fill="none" />
</svg>