<?xml version="1.0" encoding="utf-8"?>
<svg version="1.1" xmlns:xlink="http://www.w3.org/1999/xlink" width="12px" height="12px" viewBox="11 43  12 12" xmlns="http://www.w3.org/2000/svg">
  <path d="M 11.5 46  A 2.5 2.5 0 0 1 14 43.5 L 20 43.5  A 2.5 2.5 0 0 1 22.5 46 L 22.5 52  A 2.5 2.5 0 0 1 20 54.5 L 14 54.5  A 2.5 2.5 0 0 1 11.5 52 L 11.5 46  Z " fill-rule="nonzero" fill="#ffffff" stroke="none" />
  <path d="M 11.5 46  A 2.5 2.5 0 0 1 14 43.5 L 20 43.5  A 2.5 2.5 0 0 1 22.5 46 L 22.5 52  A 2.5 2.5 0 0 1 20 54.5 L 14 54.5  A 2.5 2.5 0 0 1 11.5 52 L 11.5 46  Z " stroke-width="1" stroke="#1e5df8" fill="none" />
  <path d="M 13.5714285714286 49  L 16.1428571428571 51.5714285714286  L 20.4285714285714 45.5714285714286  " stroke-width="2.57142857142857" stroke="#1e5df8" fill="none" />
</svg>