<?xml version="1.0" encoding="utf-8"?>
<svg version="1.1" xmlns:xlink="http://www.w3.org/1999/xlink" width="12px" height="12px" viewBox="11 0  12 12" xmlns="http://www.w3.org/2000/svg">
  <path d="M 11.5 3  A 2.5 2.5 0 0 1 14 0.5 L 20 0.5  A 2.5 2.5 0 0 1 22.5 3 L 22.5 9  A 2.5 2.5 0 0 1 20 11.5 L 14 11.5  A 2.5 2.5 0 0 1 11.5 9 L 11.5 3  Z " fill-rule="nonzero" fill="#ffffff" stroke="none" />
  <path d="M 11.5 3  A 2.5 2.5 0 0 1 14 0.5 L 20 0.5  A 2.5 2.5 0 0 1 22.5 3 L 22.5 9  A 2.5 2.5 0 0 1 20 11.5 L 14 11.5  A 2.5 2.5 0 0 1 11.5 9 L 11.5 3  Z " stroke-width="1" stroke="#d7d7d7" fill="none" />
</svg>