<?xml version="1.0" encoding="utf-8"?>
<svg version="1.1" xmlns:xlink="http://www.w3.org/1999/xlink" width="12px" height="12px" viewBox="501 177  12 12" xmlns="http://www.w3.org/2000/svg">
  <path d="M 501.5 180  A 2.5 2.5 0 0 1 504 177.5 L 510 177.5  A 2.5 2.5 0 0 1 512.5 180 L 512.5 186  A 2.5 2.5 0 0 1 510 188.5 L 504 188.5  A 2.5 2.5 0 0 1 501.5 186 L 501.5 180  Z " fill-rule="nonzero" fill="#ffffff" stroke="none" />
  <path d="M 501.5 180  A 2.5 2.5 0 0 1 504 177.5 L 510 177.5  A 2.5 2.5 0 0 1 512.5 180 L 512.5 186  A 2.5 2.5 0 0 1 510 188.5 L 504 188.5  A 2.5 2.5 0 0 1 501.5 186 L 501.5 180  Z " stroke-width="1" stroke="#d7d7d7" fill="none" />
</svg>