<?xml version="1.0" encoding="utf-8"?>
<svg version="1.1" xmlns:xlink="http://www.w3.org/1999/xlink" width="12px" height="12px" viewBox="501 150  12 12" xmlns="http://www.w3.org/2000/svg">
  <path d="M 501.5 153  A 2.5 2.5 0 0 1 504 150.5 L 510 150.5  A 2.5 2.5 0 0 1 512.5 153 L 512.5 159  A 2.5 2.5 0 0 1 510 161.5 L 504 161.5  A 2.5 2.5 0 0 1 501.5 159 L 501.5 153  Z " fill-rule="nonzero" fill="#f0f0f0" stroke="none" />
  <path d="M 501.5 153  A 2.5 2.5 0 0 1 504 150.5 L 510 150.5  A 2.5 2.5 0 0 1 512.5 153 L 512.5 159  A 2.5 2.5 0 0 1 510 161.5 L 504 161.5  A 2.5 2.5 0 0 1 501.5 159 L 501.5 153  Z " stroke-width="1" stroke="#d7d7d7" fill="none" />
  <path d="M 503.571428571429 156  L 506.142857142857 158.571428571429  L 510.428571428571 152.571428571429  " stroke-width="2.57142857142857" stroke="#d7d7d7" fill="none" />
</svg>