<?xml version="1.0" encoding="utf-8"?>
<svg version="1.1" xmlns:xlink="http://www.w3.org/1999/xlink" width="12px" height="12px" viewBox="501 123  12 12" xmlns="http://www.w3.org/2000/svg">
  <path d="M 501.5 126  A 2.5 2.5 0 0 1 504 123.5 L 510 123.5  A 2.5 2.5 0 0 1 512.5 126 L 512.5 132  A 2.5 2.5 0 0 1 510 134.5 L 504 134.5  A 2.5 2.5 0 0 1 501.5 132 L 501.5 126  Z " fill-rule="nonzero" fill="#f0f0f0" stroke="none" />
  <path d="M 501.5 126  A 2.5 2.5 0 0 1 504 123.5 L 510 123.5  A 2.5 2.5 0 0 1 512.5 126 L 512.5 132  A 2.5 2.5 0 0 1 510 134.5 L 504 134.5  A 2.5 2.5 0 0 1 501.5 132 L 501.5 126  Z " stroke-width="1" stroke="#d7d7d7" fill="none" />
  <path d="M 503.571428571429 129  L 506.142857142857 131.571428571429  L 510.428571428571 125.571428571429  " stroke-width="2.57142857142857" stroke="#d7d7d7" fill="none" />
</svg>