<?xml version="1.0" encoding="utf-8"?>
<svg version="1.1" xmlns:xlink="http://www.w3.org/1999/xlink" width="12px" height="12px" viewBox="501 0  12 12" xmlns="http://www.w3.org/2000/svg">
  <path d="M 501.5 3  A 2.5 2.5 0 0 1 504 0.5 L 510 0.5  A 2.5 2.5 0 0 1 512.5 3 L 512.5 9  A 2.5 2.5 0 0 1 510 11.5 L 504 11.5  A 2.5 2.5 0 0 1 501.5 9 L 501.5 3  Z " fill-rule="nonzero" fill="#ffffff" stroke="none" />
  <path d="M 501.5 3  A 2.5 2.5 0 0 1 504 0.5 L 510 0.5  A 2.5 2.5 0 0 1 512.5 3 L 512.5 9  A 2.5 2.5 0 0 1 510 11.5 L 504 11.5  A 2.5 2.5 0 0 1 501.5 9 L 501.5 3  Z " stroke-width="1" stroke="#1e5df8" fill="none" />
  <path d="M 503.571428571429 6  L 506.142857142857 8.57142857142857  L 510.428571428571 2.57142857142857  " stroke-width="2.57142857142857" stroke="#1e5df8" fill="none" />
</svg>