<?xml version="1.0" encoding="utf-8"?>
<svg version="1.1" xmlns:xlink="http://www.w3.org/1999/xlink" width="12px" height="12px" viewBox="466 97  12 12" xmlns="http://www.w3.org/2000/svg">
  <path d="M 466.5 100  A 2.5 2.5 0 0 1 469 97.5 L 475 97.5  A 2.5 2.5 0 0 1 477.5 100 L 477.5 106  A 2.5 2.5 0 0 1 475 108.5 L 469 108.5  A 2.5 2.5 0 0 1 466.5 106 L 466.5 100  Z " fill-rule="nonzero" fill="#ffffff" stroke="none" />
  <path d="M 466.5 100  A 2.5 2.5 0 0 1 469 97.5 L 475 97.5  A 2.5 2.5 0 0 1 477.5 100 L 477.5 106  A 2.5 2.5 0 0 1 475 108.5 L 469 108.5  A 2.5 2.5 0 0 1 466.5 106 L 466.5 100  Z " stroke-width="1" stroke="#d7d7d7" fill="none" />
</svg>