<?xml version="1.0" encoding="utf-8"?>
<svg version="1.1" xmlns:xlink="http://www.w3.org/1999/xlink" width="12px" height="12px" viewBox="466 0  12 12" xmlns="http://www.w3.org/2000/svg">
  <path d="M 466.5 3  A 2.5 2.5 0 0 1 469 0.5 L 475 0.5  A 2.5 2.5 0 0 1 477.5 3 L 477.5 9  A 2.5 2.5 0 0 1 475 11.5 L 469 11.5  A 2.5 2.5 0 0 1 466.5 9 L 466.5 3  Z " fill-rule="nonzero" fill="#f0f0f0" stroke="none" />
  <path d="M 466.5 3  A 2.5 2.5 0 0 1 469 0.5 L 475 0.5  A 2.5 2.5 0 0 1 477.5 3 L 477.5 9  A 2.5 2.5 0 0 1 475 11.5 L 469 11.5  A 2.5 2.5 0 0 1 466.5 9 L 466.5 3  Z " stroke-width="1" stroke="#d7d7d7" fill="none" />
  <path d="M 468.571428571429 6  L 471.142857142857 8.57142857142857  L 475.428571428571 2.57142857142857  " stroke-width="2.57142857142857" stroke="#d7d7d7" fill="none" />
</svg>