<?xml version="1.0" encoding="utf-8"?>
<svg version="1.1" xmlns:xlink="http://www.w3.org/1999/xlink" width="12px" height="12px" viewBox="536 177  12 12" xmlns="http://www.w3.org/2000/svg">
  <path d="M 536.5 180  A 2.5 2.5 0 0 1 539 177.5 L 545 177.5  A 2.5 2.5 0 0 1 547.5 180 L 547.5 186  A 2.5 2.5 0 0 1 545 188.5 L 539 188.5  A 2.5 2.5 0 0 1 536.5 186 L 536.5 180  Z " fill-rule="nonzero" fill="#ffffff" stroke="none" />
  <path d="M 536.5 180  A 2.5 2.5 0 0 1 539 177.5 L 545 177.5  A 2.5 2.5 0 0 1 547.5 180 L 547.5 186  A 2.5 2.5 0 0 1 545 188.5 L 539 188.5  A 2.5 2.5 0 0 1 536.5 186 L 536.5 180  Z " stroke-width="1" stroke="#1e5df8" fill="none" />
  <path d="M 538.571428571429 183  L 541.142857142857 185.571428571429  L 545.428571428571 179.571428571429  " stroke-width="2.57142857142857" stroke="#1e5df8" fill="none" />
</svg>