<?xml version="1.0" encoding="utf-8"?>
<svg version="1.1" xmlns:xlink="http://www.w3.org/1999/xlink" width="12px" height="12px" viewBox="81 150  12 12" xmlns="http://www.w3.org/2000/svg">
  <path d="M 81.5 153  A 2.5 2.5 0 0 1 84 150.5 L 90 150.5  A 2.5 2.5 0 0 1 92.5 153 L 92.5 159  A 2.5 2.5 0 0 1 90 161.5 L 84 161.5  A 2.5 2.5 0 0 1 81.5 159 L 81.5 153  Z " fill-rule="nonzero" fill="#ffffff" stroke="none" />
  <path d="M 81.5 153  A 2.5 2.5 0 0 1 84 150.5 L 90 150.5  A 2.5 2.5 0 0 1 92.5 153 L 92.5 159  A 2.5 2.5 0 0 1 90 161.5 L 84 161.5  A 2.5 2.5 0 0 1 81.5 159 L 81.5 153  Z " stroke-width="1" stroke="#1e5df8" fill="none" />
  <path d="M 83.5714285714286 156  L 86.1428571428571 158.571428571429  L 90.4285714285714 152.571428571429  " stroke-width="2.57142857142857" stroke="#1e5df8" fill="none" />
</svg>