<?xml version="1.0" encoding="utf-8"?>
<svg version="1.1" xmlns:xlink="http://www.w3.org/1999/xlink" width="12px" height="12px" viewBox="571 123  12 12" xmlns="http://www.w3.org/2000/svg">
  <path d="M 571.5 126  A 2.5 2.5 0 0 1 574 123.5 L 580 123.5  A 2.5 2.5 0 0 1 582.5 126 L 582.5 132  A 2.5 2.5 0 0 1 580 134.5 L 574 134.5  A 2.5 2.5 0 0 1 571.5 132 L 571.5 126  Z " fill-rule="nonzero" fill="#f0f0f0" stroke="none" />
  <path d="M 571.5 126  A 2.5 2.5 0 0 1 574 123.5 L 580 123.5  A 2.5 2.5 0 0 1 582.5 126 L 582.5 132  A 2.5 2.5 0 0 1 580 134.5 L 574 134.5  A 2.5 2.5 0 0 1 571.5 132 L 571.5 126  Z " stroke-width="1" stroke="#d7d7d7" fill="none" />
</svg>