<?xml version="1.0" encoding="utf-8"?>
<svg version="1.1" xmlns:xlink="http://www.w3.org/1999/xlink" width="12px" height="12px" viewBox="571 0  12 12" xmlns="http://www.w3.org/2000/svg">
  <path d="M 571.5 3  A 2.5 2.5 0 0 1 574 0.5 L 580 0.5  A 2.5 2.5 0 0 1 582.5 3 L 582.5 9  A 2.5 2.5 0 0 1 580 11.5 L 574 11.5  A 2.5 2.5 0 0 1 571.5 9 L 571.5 3  Z " fill-rule="nonzero" fill="#ffffff" stroke="none" />
  <path d="M 571.5 3  A 2.5 2.5 0 0 1 574 0.5 L 580 0.5  A 2.5 2.5 0 0 1 582.5 3 L 582.5 9  A 2.5 2.5 0 0 1 580 11.5 L 574 11.5  A 2.5 2.5 0 0 1 571.5 9 L 571.5 3  Z " stroke-width="1" stroke="#1e5df8" fill="none" />
  <path d="M 573.571428571429 6  L 576.142857142857 8.57142857142857  L 580.428571428571 2.57142857142857  " stroke-width="2.57142857142857" stroke="#1e5df8" fill="none" />
</svg>