<?xml version="1.0" encoding="utf-8"?>
<svg version="1.1" xmlns:xlink="http://www.w3.org/1999/xlink" width="12px" height="12px" viewBox="81 123  12 12" xmlns="http://www.w3.org/2000/svg">
  <path d="M 81.5 126  A 2.5 2.5 0 0 1 84 123.5 L 90 123.5  A 2.5 2.5 0 0 1 92.5 126 L 92.5 132  A 2.5 2.5 0 0 1 90 134.5 L 84 134.5  A 2.5 2.5 0 0 1 81.5 132 L 81.5 126  Z " fill-rule="nonzero" fill="#ffffff" stroke="none" />
  <path d="M 81.5 126  A 2.5 2.5 0 0 1 84 123.5 L 90 123.5  A 2.5 2.5 0 0 1 92.5 126 L 92.5 132  A 2.5 2.5 0 0 1 90 134.5 L 84 134.5  A 2.5 2.5 0 0 1 81.5 132 L 81.5 126  Z " stroke-width="1" stroke="#1e5df8" fill="none" />
  <path d="M 83.5714285714286 129  L 86.1428571428571 131.571428571429  L 90.4285714285714 125.571428571429  " stroke-width="2.57142857142857" stroke="#1e5df8" fill="none" />
</svg>