<?xml version="1.0" encoding="utf-8"?>
<svg version="1.1" xmlns:xlink="http://www.w3.org/1999/xlink" width="12px" height="12px" viewBox="641 97  12 12" xmlns="http://www.w3.org/2000/svg">
  <path d="M 641.5 100  A 2.5 2.5 0 0 1 644 97.5 L 650 97.5  A 2.5 2.5 0 0 1 652.5 100 L 652.5 106  A 2.5 2.5 0 0 1 650 108.5 L 644 108.5  A 2.5 2.5 0 0 1 641.5 106 L 641.5 100  Z " fill-rule="nonzero" fill="#ffffff" stroke="none" />
  <path d="M 641.5 100  A 2.5 2.5 0 0 1 644 97.5 L 650 97.5  A 2.5 2.5 0 0 1 652.5 100 L 652.5 106  A 2.5 2.5 0 0 1 650 108.5 L 644 108.5  A 2.5 2.5 0 0 1 641.5 106 L 641.5 100  Z " stroke-width="1" stroke="#d7d7d7" fill="none" />
</svg>