<?xml version="1.0" encoding="utf-8"?>
<svg version="1.1" xmlns:xlink="http://www.w3.org/1999/xlink" width="12px" height="12px" viewBox="711 177  12 12" xmlns="http://www.w3.org/2000/svg">
  <path d="M 711.5 180  A 2.5 2.5 0 0 1 714 177.5 L 720 177.5  A 2.5 2.5 0 0 1 722.5 180 L 722.5 186  A 2.5 2.5 0 0 1 720 188.5 L 714 188.5  A 2.5 2.5 0 0 1 711.5 186 L 711.5 180  Z " fill-rule="nonzero" fill="#ffffff" stroke="none" />
  <path d="M 711.5 180  A 2.5 2.5 0 0 1 714 177.5 L 720 177.5  A 2.5 2.5 0 0 1 722.5 180 L 722.5 186  A 2.5 2.5 0 0 1 720 188.5 L 714 188.5  A 2.5 2.5 0 0 1 711.5 186 L 711.5 180  Z " stroke-width="1" stroke="#1e5df8" fill="none" />
  <path d="M 713.571428571429 183  L 716.142857142857 185.571428571429  L 720.428571428571 179.571428571429  " stroke-width="2.57142857142857" stroke="#1e5df8" fill="none" />
</svg>