<?xml version="1.0" encoding="utf-8"?>
<svg version="1.1" xmlns:xlink="http://www.w3.org/1999/xlink" width="12px" height="12px" viewBox="711 150  12 12" xmlns="http://www.w3.org/2000/svg">
  <path d="M 711.5 153  A 2.5 2.5 0 0 1 714 150.5 L 720 150.5  A 2.5 2.5 0 0 1 722.5 153 L 722.5 159  A 2.5 2.5 0 0 1 720 161.5 L 714 161.5  A 2.5 2.5 0 0 1 711.5 159 L 711.5 153  Z " fill-rule="nonzero" fill="#f0f0f0" stroke="none" />
  <path d="M 711.5 153  A 2.5 2.5 0 0 1 714 150.5 L 720 150.5  A 2.5 2.5 0 0 1 722.5 153 L 722.5 159  A 2.5 2.5 0 0 1 720 161.5 L 714 161.5  A 2.5 2.5 0 0 1 711.5 159 L 711.5 153  Z " stroke-width="1" stroke="#d7d7d7" fill="none" />
</svg>