<?xml version="1.0" encoding="utf-8"?>
<svg version="1.1" xmlns:xlink="http://www.w3.org/1999/xlink" width="12px" height="12px" viewBox="81 97  12 12" xmlns="http://www.w3.org/2000/svg">
  <path d="M 81.5 100  A 2.5 2.5 0 0 1 84 97.5 L 90 97.5  A 2.5 2.5 0 0 1 92.5 100 L 92.5 106  A 2.5 2.5 0 0 1 90 108.5 L 84 108.5  A 2.5 2.5 0 0 1 81.5 106 L 81.5 100  Z " fill-rule="nonzero" fill="#ffffff" stroke="none" />
  <path d="M 81.5 100  A 2.5 2.5 0 0 1 84 97.5 L 90 97.5  A 2.5 2.5 0 0 1 92.5 100 L 92.5 106  A 2.5 2.5 0 0 1 90 108.5 L 84 108.5  A 2.5 2.5 0 0 1 81.5 106 L 81.5 100  Z " stroke-width="1" stroke="#1e5df8" fill="none" />
  <path d="M 83.5714285714286 103  L 86.1428571428571 105.571428571429  L 90.4285714285714 99.5714285714286  " stroke-width="2.57142857142857" stroke="#1e5df8" fill="none" />
</svg>