<?xml version="1.0" encoding="utf-8"?>
<svg version="1.1" xmlns:xlink="http://www.w3.org/1999/xlink" width="12px" height="12px" viewBox="676 0  12 12" xmlns="http://www.w3.org/2000/svg">
  <path d="M 676.5 3  A 2.5 2.5 0 0 1 679 0.5 L 685 0.5  A 2.5 2.5 0 0 1 687.5 3 L 687.5 9  A 2.5 2.5 0 0 1 685 11.5 L 679 11.5  A 2.5 2.5 0 0 1 676.5 9 L 676.5 3  Z " fill-rule="nonzero" fill="#f0f0f0" stroke="none" />
  <path d="M 676.5 3  A 2.5 2.5 0 0 1 679 0.5 L 685 0.5  A 2.5 2.5 0 0 1 687.5 3 L 687.5 9  A 2.5 2.5 0 0 1 685 11.5 L 679 11.5  A 2.5 2.5 0 0 1 676.5 9 L 676.5 3  Z " stroke-width="1" stroke="#d7d7d7" fill="none" />
</svg>