<?xml version="1.0" encoding="utf-8"?>
<svg version="1.1" xmlns:xlink="http://www.w3.org/1999/xlink" width="12px" height="12px" viewBox="746 43  12 12" xmlns="http://www.w3.org/2000/svg">
  <path d="M 746.5 46  A 2.5 2.5 0 0 1 749 43.5 L 755 43.5  A 2.5 2.5 0 0 1 757.5 46 L 757.5 52  A 2.5 2.5 0 0 1 755 54.5 L 749 54.5  A 2.5 2.5 0 0 1 746.5 52 L 746.5 46  Z " fill-rule="nonzero" fill="#ffffff" stroke="none" />
  <path d="M 746.5 46  A 2.5 2.5 0 0 1 749 43.5 L 755 43.5  A 2.5 2.5 0 0 1 757.5 46 L 757.5 52  A 2.5 2.5 0 0 1 755 54.5 L 749 54.5  A 2.5 2.5 0 0 1 746.5 52 L 746.5 46  Z " stroke-width="1" stroke="#1e5df8" fill="none" />
  <path d="M 748.571428571429 49  L 751.142857142857 51.5714285714286  L 755.428571428571 45.5714285714286  " stroke-width="2.57142857142857" stroke="#1e5df8" fill="none" />
</svg>