<?xml version="1.0" encoding="utf-8"?>
<svg version="1.1" xmlns:xlink="http://www.w3.org/1999/xlink" width="12px" height="12px" viewBox="81 43  12 12" xmlns="http://www.w3.org/2000/svg">
  <path d="M 81.5 46  A 2.5 2.5 0 0 1 84 43.5 L 90 43.5  A 2.5 2.5 0 0 1 92.5 46 L 92.5 52  A 2.5 2.5 0 0 1 90 54.5 L 84 54.5  A 2.5 2.5 0 0 1 81.5 52 L 81.5 46  Z " fill-rule="nonzero" fill="#ffffff" stroke="none" />
  <path d="M 81.5 46  A 2.5 2.5 0 0 1 84 43.5 L 90 43.5  A 2.5 2.5 0 0 1 92.5 46 L 92.5 52  A 2.5 2.5 0 0 1 90 54.5 L 84 54.5  A 2.5 2.5 0 0 1 81.5 52 L 81.5 46  Z " stroke-width="1" stroke="#1e5df8" fill="none" />
  <path d="M 83.5714285714286 49  L 86.1428571428571 51.5714285714286  L 90.4285714285714 45.5714285714286  " stroke-width="2.57142857142857" stroke="#1e5df8" fill="none" />
</svg>