<?xml version="1.0" encoding="utf-8"?>
<svg version="1.1" xmlns:xlink="http://www.w3.org/1999/xlink" width="12px" height="12px" viewBox="816 150  12 12" xmlns="http://www.w3.org/2000/svg">
  <path d="M 816.5 153  A 2.5 2.5 0 0 1 819 150.5 L 825 150.5  A 2.5 2.5 0 0 1 827.5 153 L 827.5 159  A 2.5 2.5 0 0 1 825 161.5 L 819 161.5  A 2.5 2.5 0 0 1 816.5 159 L 816.5 153  Z " fill-rule="nonzero" fill="#ffffff" stroke="none" />
  <path d="M 816.5 153  A 2.5 2.5 0 0 1 819 150.5 L 825 150.5  A 2.5 2.5 0 0 1 827.5 153 L 827.5 159  A 2.5 2.5 0 0 1 825 161.5 L 819 161.5  A 2.5 2.5 0 0 1 816.5 159 L 816.5 153  Z " stroke-width="1" stroke="#d7d7d7" fill="none" />
</svg>