<?xml version="1.0" encoding="utf-8"?>
<svg version="1.1" xmlns:xlink="http://www.w3.org/1999/xlink" width="12px" height="12px" viewBox="816 70  12 12" xmlns="http://www.w3.org/2000/svg">
  <path d="M 816.5 73  A 2.5 2.5 0 0 1 819 70.5 L 825 70.5  A 2.5 2.5 0 0 1 827.5 73 L 827.5 79  A 2.5 2.5 0 0 1 825 81.5 L 819 81.5  A 2.5 2.5 0 0 1 816.5 79 L 816.5 73  Z " fill-rule="nonzero" fill="#f0f0f0" stroke="none" />
  <path d="M 816.5 73  A 2.5 2.5 0 0 1 819 70.5 L 825 70.5  A 2.5 2.5 0 0 1 827.5 73 L 827.5 79  A 2.5 2.5 0 0 1 825 81.5 L 819 81.5  A 2.5 2.5 0 0 1 816.5 79 L 816.5 73  Z " stroke-width="1" stroke="#d7d7d7" fill="none" />
  <path d="M 818.571428571429 76  L 821.142857142857 78.5714285714286  L 825.428571428571 72.5714285714286  " stroke-width="2.57142857142857" stroke="#d7d7d7" fill="none" />
</svg>