<?xml version="1.0" encoding="utf-8"?>
<svg version="1.1" xmlns:xlink="http://www.w3.org/1999/xlink" width="12px" height="12px" viewBox="781 177  12 12" xmlns="http://www.w3.org/2000/svg">
  <path d="M 781.5 180  A 2.5 2.5 0 0 1 784 177.5 L 790 177.5  A 2.5 2.5 0 0 1 792.5 180 L 792.5 186  A 2.5 2.5 0 0 1 790 188.5 L 784 188.5  A 2.5 2.5 0 0 1 781.5 186 L 781.5 180  Z " fill-rule="nonzero" fill="#ffffff" stroke="none" />
  <path d="M 781.5 180  A 2.5 2.5 0 0 1 784 177.5 L 790 177.5  A 2.5 2.5 0 0 1 792.5 180 L 792.5 186  A 2.5 2.5 0 0 1 790 188.5 L 784 188.5  A 2.5 2.5 0 0 1 781.5 186 L 781.5 180  Z " stroke-width="1" stroke="#1e5df8" fill="none" />
  <path d="M 783.571428571429 183  L 786.142857142857 185.571428571429  L 790.428571428571 179.571428571429  " stroke-width="2.57142857142857" stroke="#1e5df8" fill="none" />
</svg>