<?xml version="1.0" encoding="utf-8"?>
<svg version="1.1" xmlns:xlink="http://www.w3.org/1999/xlink" width="12px" height="12px" viewBox="781 97  12 12" xmlns="http://www.w3.org/2000/svg">
  <path d="M 781.5 100  A 2.5 2.5 0 0 1 784 97.5 L 790 97.5  A 2.5 2.5 0 0 1 792.5 100 L 792.5 106  A 2.5 2.5 0 0 1 790 108.5 L 784 108.5  A 2.5 2.5 0 0 1 781.5 106 L 781.5 100  Z " fill-rule="nonzero" fill="#f0f0f0" stroke="none" />
  <path d="M 781.5 100  A 2.5 2.5 0 0 1 784 97.5 L 790 97.5  A 2.5 2.5 0 0 1 792.5 100 L 792.5 106  A 2.5 2.5 0 0 1 790 108.5 L 784 108.5  A 2.5 2.5 0 0 1 781.5 106 L 781.5 100  Z " stroke-width="1" stroke="#d7d7d7" fill="none" />
  <path d="M 783.571428571429 103  L 786.142857142857 105.571428571429  L 790.428571428571 99.5714285714286  " stroke-width="2.57142857142857" stroke="#d7d7d7" fill="none" />
</svg>