<?xml version="1.0" encoding="utf-8"?>
<svg version="1.1" xmlns:xlink="http://www.w3.org/1999/xlink" width="12px" height="12px" viewBox="781 70  12 12" xmlns="http://www.w3.org/2000/svg">
  <path d="M 781.5 73  A 2.5 2.5 0 0 1 784 70.5 L 790 70.5  A 2.5 2.5 0 0 1 792.5 73 L 792.5 79  A 2.5 2.5 0 0 1 790 81.5 L 784 81.5  A 2.5 2.5 0 0 1 781.5 79 L 781.5 73  Z " fill-rule="nonzero" fill="#ffffff" stroke="none" />
  <path d="M 781.5 73  A 2.5 2.5 0 0 1 784 70.5 L 790 70.5  A 2.5 2.5 0 0 1 792.5 73 L 792.5 79  A 2.5 2.5 0 0 1 790 81.5 L 784 81.5  A 2.5 2.5 0 0 1 781.5 79 L 781.5 73  Z " stroke-width="1" stroke="#1e5df8" fill="none" />
  <path d="M 783.571428571429 76  L 786.142857142857 78.5714285714286  L 790.428571428571 72.5714285714286  " stroke-width="2.57142857142857" stroke="#1e5df8" fill="none" />
</svg>