<?xml version="1.0" encoding="utf-8"?>
<svg version="1.1" xmlns:xlink="http://www.w3.org/1999/xlink" width="12px" height="12px" viewBox="851 70  12 12" xmlns="http://www.w3.org/2000/svg">
  <path d="M 851.5 73  A 2.5 2.5 0 0 1 854 70.5 L 860 70.5  A 2.5 2.5 0 0 1 862.5 73 L 862.5 79  A 2.5 2.5 0 0 1 860 81.5 L 854 81.5  A 2.5 2.5 0 0 1 851.5 79 L 851.5 73  Z " fill-rule="nonzero" fill="#f0f0f0" stroke="none" />
  <path d="M 851.5 73  A 2.5 2.5 0 0 1 854 70.5 L 860 70.5  A 2.5 2.5 0 0 1 862.5 73 L 862.5 79  A 2.5 2.5 0 0 1 860 81.5 L 854 81.5  A 2.5 2.5 0 0 1 851.5 79 L 851.5 73  Z " stroke-width="1" stroke="#d7d7d7" fill="none" />
  <path d="M 853.571428571429 76  L 856.142857142857 78.5714285714286  L 860.428571428571 72.5714285714286  " stroke-width="2.57142857142857" stroke="#d7d7d7" fill="none" />
</svg>