<?xml version="1.0" encoding="utf-8"?>
<svg version="1.1" xmlns:xlink="http://www.w3.org/1999/xlink" width="12px" height="12px" viewBox="851 43  12 12" xmlns="http://www.w3.org/2000/svg">
  <path d="M 851.5 46  A 2.5 2.5 0 0 1 854 43.5 L 860 43.5  A 2.5 2.5 0 0 1 862.5 46 L 862.5 52  A 2.5 2.5 0 0 1 860 54.5 L 854 54.5  A 2.5 2.5 0 0 1 851.5 52 L 851.5 46  Z " fill-rule="nonzero" fill="#ffffff" stroke="none" />
  <path d="M 851.5 46  A 2.5 2.5 0 0 1 854 43.5 L 860 43.5  A 2.5 2.5 0 0 1 862.5 46 L 862.5 52  A 2.5 2.5 0 0 1 860 54.5 L 854 54.5  A 2.5 2.5 0 0 1 851.5 52 L 851.5 46  Z " stroke-width="1" stroke="#1e5df8" fill="none" />
  <path d="M 853.571428571429 49  L 856.142857142857 51.5714285714286  L 860.428571428571 45.5714285714286  " stroke-width="2.57142857142857" stroke="#1e5df8" fill="none" />
</svg>