<?xml version="1.0" encoding="utf-8"?>
<svg version="1.1" xmlns:xlink="http://www.w3.org/1999/xlink" width="12px" height="12px" viewBox="851 0  12 12" xmlns="http://www.w3.org/2000/svg">
  <path d="M 851.5 3  A 2.5 2.5 0 0 1 854 0.5 L 860 0.5  A 2.5 2.5 0 0 1 862.5 3 L 862.5 9  A 2.5 2.5 0 0 1 860 11.5 L 854 11.5  A 2.5 2.5 0 0 1 851.5 9 L 851.5 3  Z " fill-rule="nonzero" fill="#f0f0f0" stroke="none" />
  <path d="M 851.5 3  A 2.5 2.5 0 0 1 854 0.5 L 860 0.5  A 2.5 2.5 0 0 1 862.5 3 L 862.5 9  A 2.5 2.5 0 0 1 860 11.5 L 854 11.5  A 2.5 2.5 0 0 1 851.5 9 L 851.5 3  Z " stroke-width="1" stroke="#d7d7d7" fill="none" />
  <path d="M 853.571428571429 6  L 856.142857142857 8.57142857142857  L 860.428571428571 2.57142857142857  " stroke-width="2.57142857142857" stroke="#d7d7d7" fill="none" />
</svg>