<?xml version="1.0" encoding="utf-8"?>
<svg version="1.1" xmlns:xlink="http://www.w3.org/1999/xlink" width="12px" height="12px" viewBox="921 177  12 12" xmlns="http://www.w3.org/2000/svg">
  <path d="M 921.5 180  A 2.5 2.5 0 0 1 924 177.5 L 930 177.5  A 2.5 2.5 0 0 1 932.5 180 L 932.5 186  A 2.5 2.5 0 0 1 930 188.5 L 924 188.5  A 2.5 2.5 0 0 1 921.5 186 L 921.5 180  Z " fill-rule="nonzero" fill="#ffffff" stroke="none" />
  <path d="M 921.5 180  A 2.5 2.5 0 0 1 924 177.5 L 930 177.5  A 2.5 2.5 0 0 1 932.5 180 L 932.5 186  A 2.5 2.5 0 0 1 930 188.5 L 924 188.5  A 2.5 2.5 0 0 1 921.5 186 L 921.5 180  Z " stroke-width="1" stroke="#1e5df8" fill="none" />
  <path d="M 923.571428571429 183  L 926.142857142857 185.571428571429  L 930.428571428571 179.571428571429  " stroke-width="2.57142857142857" stroke="#1e5df8" fill="none" />
</svg>