<?xml version="1.0" encoding="utf-8"?>
<svg version="1.1" xmlns:xlink="http://www.w3.org/1999/xlink" width="12px" height="12px" viewBox="921 97  12 12" xmlns="http://www.w3.org/2000/svg">
  <path d="M 921.5 100  A 2.5 2.5 0 0 1 924 97.5 L 930 97.5  A 2.5 2.5 0 0 1 932.5 100 L 932.5 106  A 2.5 2.5 0 0 1 930 108.5 L 924 108.5  A 2.5 2.5 0 0 1 921.5 106 L 921.5 100  Z " fill-rule="nonzero" fill="#ffffff" stroke="none" />
  <path d="M 921.5 100  A 2.5 2.5 0 0 1 924 97.5 L 930 97.5  A 2.5 2.5 0 0 1 932.5 100 L 932.5 106  A 2.5 2.5 0 0 1 930 108.5 L 924 108.5  A 2.5 2.5 0 0 1 921.5 106 L 921.5 100  Z " stroke-width="1" stroke="#d7d7d7" fill="none" />
</svg>