<?xml version="1.0" encoding="utf-8"?>
<svg version="1.1" xmlns:xlink="http://www.w3.org/1999/xlink" width="12px" height="12px" viewBox="921 43  12 12" xmlns="http://www.w3.org/2000/svg">
  <path d="M 921.5 46  A 2.5 2.5 0 0 1 924 43.5 L 930 43.5  A 2.5 2.5 0 0 1 932.5 46 L 932.5 52  A 2.5 2.5 0 0 1 930 54.5 L 924 54.5  A 2.5 2.5 0 0 1 921.5 52 L 921.5 46  Z " fill-rule="nonzero" fill="#f0f0f0" stroke="none" />
  <path d="M 921.5 46  A 2.5 2.5 0 0 1 924 43.5 L 930 43.5  A 2.5 2.5 0 0 1 932.5 46 L 932.5 52  A 2.5 2.5 0 0 1 930 54.5 L 924 54.5  A 2.5 2.5 0 0 1 921.5 52 L 921.5 46  Z " stroke-width="1" stroke="#d7d7d7" fill="none" />
  <path d="M 923.571428571429 49  L 926.142857142857 51.5714285714286  L 930.428571428571 45.5714285714286  " stroke-width="2.57142857142857" stroke="#d7d7d7" fill="none" />
</svg>