<?xml version="1.0" encoding="utf-8"?>
<svg version="1.1" xmlns:xlink="http://www.w3.org/1999/xlink" width="12px" height="12px" viewBox="886 177  12 12" xmlns="http://www.w3.org/2000/svg">
  <path d="M 886.5 180  A 2.5 2.5 0 0 1 889 177.5 L 895 177.5  A 2.5 2.5 0 0 1 897.5 180 L 897.5 186  A 2.5 2.5 0 0 1 895 188.5 L 889 188.5  A 2.5 2.5 0 0 1 886.5 186 L 886.5 180  Z " fill-rule="nonzero" fill="#ffffff" stroke="none" />
  <path d="M 886.5 180  A 2.5 2.5 0 0 1 889 177.5 L 895 177.5  A 2.5 2.5 0 0 1 897.5 180 L 897.5 186  A 2.5 2.5 0 0 1 895 188.5 L 889 188.5  A 2.5 2.5 0 0 1 886.5 186 L 886.5 180  Z " stroke-width="1" stroke="#1e5df8" fill="none" />
  <path d="M 888.571428571429 183  L 891.142857142857 185.571428571429  L 895.428571428571 179.571428571429  " stroke-width="2.57142857142857" stroke="#1e5df8" fill="none" />
</svg>