<?xml version="1.0" encoding="utf-8"?>
<svg version="1.1" xmlns:xlink="http://www.w3.org/1999/xlink" width="12px" height="12px" viewBox="886 70  12 12" xmlns="http://www.w3.org/2000/svg">
  <path d="M 886.5 73  A 2.5 2.5 0 0 1 889 70.5 L 895 70.5  A 2.5 2.5 0 0 1 897.5 73 L 897.5 79  A 2.5 2.5 0 0 1 895 81.5 L 889 81.5  A 2.5 2.5 0 0 1 886.5 79 L 886.5 73  Z " fill-rule="nonzero" fill="#ffffff" stroke="none" />
  <path d="M 886.5 73  A 2.5 2.5 0 0 1 889 70.5 L 895 70.5  A 2.5 2.5 0 0 1 897.5 73 L 897.5 79  A 2.5 2.5 0 0 1 895 81.5 L 889 81.5  A 2.5 2.5 0 0 1 886.5 79 L 886.5 73  Z " stroke-width="1" stroke="#d7d7d7" fill="none" />
</svg>