<?xml version="1.0" encoding="utf-8"?>
<svg version="1.1" xmlns:xlink="http://www.w3.org/1999/xlink" width="12px" height="12px" viewBox="956 43  12 12" xmlns="http://www.w3.org/2000/svg">
  <path d="M 956.5 46  A 2.5 2.5 0 0 1 959 43.5 L 965 43.5  A 2.5 2.5 0 0 1 967.5 46 L 967.5 52  A 2.5 2.5 0 0 1 965 54.5 L 959 54.5  A 2.5 2.5 0 0 1 956.5 52 L 956.5 46  Z " fill-rule="nonzero" fill="#ffffff" stroke="none" />
  <path d="M 956.5 46  A 2.5 2.5 0 0 1 959 43.5 L 965 43.5  A 2.5 2.5 0 0 1 967.5 46 L 967.5 52  A 2.5 2.5 0 0 1 965 54.5 L 959 54.5  A 2.5 2.5 0 0 1 956.5 52 L 956.5 46  Z " stroke-width="1" stroke="#1e5df8" fill="none" />
  <path d="M 958.571428571429 49  L 961.142857142857 51.5714285714286  L 965.428571428571 45.5714285714286  " stroke-width="2.57142857142857" stroke="#1e5df8" fill="none" />
</svg>