<?xml version="1.0" encoding="utf-8"?>
<svg version="1.1" xmlns:xlink="http://www.w3.org/1999/xlink" width="12px" height="12px" viewBox="1026 123  12 12" xmlns="http://www.w3.org/2000/svg">
  <path d="M 1026.5 126  A 2.5 2.5 0 0 1 1029 123.5 L 1035 123.5  A 2.5 2.5 0 0 1 1037.5 126 L 1037.5 132  A 2.5 2.5 0 0 1 1035 134.5 L 1029 134.5  A 2.5 2.5 0 0 1 1026.5 132 L 1026.5 126  Z " fill-rule="nonzero" fill="#ffffff" stroke="none" />
  <path d="M 1026.5 126  A 2.5 2.5 0 0 1 1029 123.5 L 1035 123.5  A 2.5 2.5 0 0 1 1037.5 126 L 1037.5 132  A 2.5 2.5 0 0 1 1035 134.5 L 1029 134.5  A 2.5 2.5 0 0 1 1026.5 132 L 1026.5 126  Z " stroke-width="1" stroke="#1e5df8" fill="none" />
  <path d="M 1028.57142857143 129  L 1031.14285714286 131.571428571429  L 1035.42857142857 125.571428571429  " stroke-width="2.57142857142857" stroke="#1e5df8" fill="none" />
</svg>