<?xml version="1.0" encoding="utf-8"?>
<svg version="1.1" xmlns:xlink="http://www.w3.org/1999/xlink" width="12px" height="12px" viewBox="46 123  12 12" xmlns="http://www.w3.org/2000/svg">
  <path d="M 46.5 126  A 2.5 2.5 0 0 1 49 123.5 L 55 123.5  A 2.5 2.5 0 0 1 57.5 126 L 57.5 132  A 2.5 2.5 0 0 1 55 134.5 L 49 134.5  A 2.5 2.5 0 0 1 46.5 132 L 46.5 126  Z " fill-rule="nonzero" fill="#f0f0f0" stroke="none" />
  <path d="M 46.5 126  A 2.5 2.5 0 0 1 49 123.5 L 55 123.5  A 2.5 2.5 0 0 1 57.5 126 L 57.5 132  A 2.5 2.5 0 0 1 55 134.5 L 49 134.5  A 2.5 2.5 0 0 1 46.5 132 L 46.5 126  Z " stroke-width="1" stroke="#d7d7d7" fill="none" />
  <path d="M 48.5714285714286 129  L 51.1428571428571 131.571428571429  L 55.4285714285714 125.571428571429  " stroke-width="2.57142857142857" stroke="#d7d7d7" fill="none" />
</svg>