<?xml version="1.0" encoding="utf-8"?>
<svg version="1.1" xmlns:xlink="http://www.w3.org/1999/xlink" width="12px" height="12px" viewBox="1026 43  12 12" xmlns="http://www.w3.org/2000/svg">
  <path d="M 1026.5 46  A 2.5 2.5 0 0 1 1029 43.5 L 1035 43.5  A 2.5 2.5 0 0 1 1037.5 46 L 1037.5 52  A 2.5 2.5 0 0 1 1035 54.5 L 1029 54.5  A 2.5 2.5 0 0 1 1026.5 52 L 1026.5 46  Z " fill-rule="nonzero" fill="#ffffff" stroke="none" />
  <path d="M 1026.5 46  A 2.5 2.5 0 0 1 1029 43.5 L 1035 43.5  A 2.5 2.5 0 0 1 1037.5 46 L 1037.5 52  A 2.5 2.5 0 0 1 1035 54.5 L 1029 54.5  A 2.5 2.5 0 0 1 1026.5 52 L 1026.5 46  Z " stroke-width="1" stroke="#d7d7d7" fill="none" />
</svg>