<?xml version="1.0" encoding="utf-8"?>
<svg version="1.1" xmlns:xlink="http://www.w3.org/1999/xlink" width="12px" height="12px" viewBox="991 177  12 12" xmlns="http://www.w3.org/2000/svg">
  <path d="M 991.5 180  A 2.5 2.5 0 0 1 994 177.5 L 1000 177.5  A 2.5 2.5 0 0 1 1002.5 180 L 1002.5 186  A 2.5 2.5 0 0 1 1000 188.5 L 994 188.5  A 2.5 2.5 0 0 1 991.5 186 L 991.5 180  Z " fill-rule="nonzero" fill="#ffffff" stroke="none" />
  <path d="M 991.5 180  A 2.5 2.5 0 0 1 994 177.5 L 1000 177.5  A 2.5 2.5 0 0 1 1002.5 180 L 1002.5 186  A 2.5 2.5 0 0 1 1000 188.5 L 994 188.5  A 2.5 2.5 0 0 1 991.5 186 L 991.5 180  Z " stroke-width="1" stroke="#1e5df8" fill="none" />
  <path d="M 993.571428571429 183  L 996.142857142857 185.571428571429  L 1000.42857142857 179.571428571429  " stroke-width="2.57142857142857" stroke="#1e5df8" fill="none" />
</svg>