<?xml version="1.0" encoding="utf-8"?>
<svg version="1.1" xmlns:xlink="http://www.w3.org/1999/xlink" width="12px" height="12px" viewBox="991 150  12 12" xmlns="http://www.w3.org/2000/svg">
  <path d="M 991.5 153  A 2.5 2.5 0 0 1 994 150.5 L 1000 150.5  A 2.5 2.5 0 0 1 1002.5 153 L 1002.5 159  A 2.5 2.5 0 0 1 1000 161.5 L 994 161.5  A 2.5 2.5 0 0 1 991.5 159 L 991.5 153  Z " fill-rule="nonzero" fill="#ffffff" stroke="none" />
  <path d="M 991.5 153  A 2.5 2.5 0 0 1 994 150.5 L 1000 150.5  A 2.5 2.5 0 0 1 1002.5 153 L 1002.5 159  A 2.5 2.5 0 0 1 1000 161.5 L 994 161.5  A 2.5 2.5 0 0 1 991.5 159 L 991.5 153  Z " stroke-width="1" stroke="#d7d7d7" fill="none" />
</svg>