<?xml version="1.0" encoding="utf-8"?>
<svg version="1.1" xmlns:xlink="http://www.w3.org/1999/xlink" width="12px" height="12px" viewBox="991 123  12 12" xmlns="http://www.w3.org/2000/svg">
  <path d="M 991.5 126  A 2.5 2.5 0 0 1 994 123.5 L 1000 123.5  A 2.5 2.5 0 0 1 1002.5 126 L 1002.5 132  A 2.5 2.5 0 0 1 1000 134.5 L 994 134.5  A 2.5 2.5 0 0 1 991.5 132 L 991.5 126  Z " fill-rule="nonzero" fill="#ffffff" stroke="none" />
  <path d="M 991.5 126  A 2.5 2.5 0 0 1 994 123.5 L 1000 123.5  A 2.5 2.5 0 0 1 1002.5 126 L 1002.5 132  A 2.5 2.5 0 0 1 1000 134.5 L 994 134.5  A 2.5 2.5 0 0 1 991.5 132 L 991.5 126  Z " stroke-width="1" stroke="#1e5df8" fill="none" />
  <path d="M 993.571428571429 129  L 996.142857142857 131.571428571429  L 1000.42857142857 125.571428571429  " stroke-width="2.57142857142857" stroke="#1e5df8" fill="none" />
</svg>