<?xml version="1.0" encoding="utf-8"?>
<svg version="1.1" xmlns:xlink="http://www.w3.org/1999/xlink" width="12px" height="12px" viewBox="991 70  12 12" xmlns="http://www.w3.org/2000/svg">
  <path d="M 991.5 73  A 2.5 2.5 0 0 1 994 70.5 L 1000 70.5  A 2.5 2.5 0 0 1 1002.5 73 L 1002.5 79  A 2.5 2.5 0 0 1 1000 81.5 L 994 81.5  A 2.5 2.5 0 0 1 991.5 79 L 991.5 73  Z " fill-rule="nonzero" fill="#f0f0f0" stroke="none" />
  <path d="M 991.5 73  A 2.5 2.5 0 0 1 994 70.5 L 1000 70.5  A 2.5 2.5 0 0 1 1002.5 73 L 1002.5 79  A 2.5 2.5 0 0 1 1000 81.5 L 994 81.5  A 2.5 2.5 0 0 1 991.5 79 L 991.5 73  Z " stroke-width="1" stroke="#d7d7d7" fill="none" />
</svg>