<?xml version="1.0" encoding="utf-8"?>
<svg version="1.1" xmlns:xlink="http://www.w3.org/1999/xlink" width="12px" height="12px" viewBox="991 43  12 12" xmlns="http://www.w3.org/2000/svg">
  <path d="M 991.5 46  A 2.5 2.5 0 0 1 994 43.5 L 1000 43.5  A 2.5 2.5 0 0 1 1002.5 46 L 1002.5 52  A 2.5 2.5 0 0 1 1000 54.5 L 994 54.5  A 2.5 2.5 0 0 1 991.5 52 L 991.5 46  Z " fill-rule="nonzero" fill="#ffffff" stroke="none" />
  <path d="M 991.5 46  A 2.5 2.5 0 0 1 994 43.5 L 1000 43.5  A 2.5 2.5 0 0 1 1002.5 46 L 1002.5 52  A 2.5 2.5 0 0 1 1000 54.5 L 994 54.5  A 2.5 2.5 0 0 1 991.5 52 L 991.5 46  Z " stroke-width="1" stroke="#1e5df8" fill="none" />
  <path d="M 993.571428571429 49  L 996.142857142857 51.5714285714286  L 1000.42857142857 45.5714285714286  " stroke-width="2.57142857142857" stroke="#1e5df8" fill="none" />
</svg>