<?xml version="1.0" encoding="utf-8"?>
<svg version="1.1" xmlns:xlink="http://www.w3.org/1999/xlink" width="12px" height="12px" viewBox="1061 97  12 12" xmlns="http://www.w3.org/2000/svg">
  <path d="M 1061.5 100  A 2.5 2.5 0 0 1 1064 97.5 L 1070 97.5  A 2.5 2.5 0 0 1 1072.5 100 L 1072.5 106  A 2.5 2.5 0 0 1 1070 108.5 L 1064 108.5  A 2.5 2.5 0 0 1 1061.5 106 L 1061.5 100  Z " fill-rule="nonzero" fill="#f0f0f0" stroke="none" />
  <path d="M 1061.5 100  A 2.5 2.5 0 0 1 1064 97.5 L 1070 97.5  A 2.5 2.5 0 0 1 1072.5 100 L 1072.5 106  A 2.5 2.5 0 0 1 1070 108.5 L 1064 108.5  A 2.5 2.5 0 0 1 1061.5 106 L 1061.5 100  Z " stroke-width="1" stroke="#d7d7d7" fill="none" />
</svg>