<?xml version="1.0" encoding="utf-8"?>
<svg version="1.1" xmlns:xlink="http://www.w3.org/1999/xlink" width="12px" height="12px" viewBox="1131 150  12 12" xmlns="http://www.w3.org/2000/svg">
  <path d="M 1131.5 153  A 2.5 2.5 0 0 1 1134 150.5 L 1140 150.5  A 2.5 2.5 0 0 1 1142.5 153 L 1142.5 159  A 2.5 2.5 0 0 1 1140 161.5 L 1134 161.5  A 2.5 2.5 0 0 1 1131.5 159 L 1131.5 153  Z " fill-rule="nonzero" fill="#f0f0f0" stroke="none" />
  <path d="M 1131.5 153  A 2.5 2.5 0 0 1 1134 150.5 L 1140 150.5  A 2.5 2.5 0 0 1 1142.5 153 L 1142.5 159  A 2.5 2.5 0 0 1 1140 161.5 L 1134 161.5  A 2.5 2.5 0 0 1 1131.5 159 L 1131.5 153  Z " stroke-width="1" stroke="#d7d7d7" fill="none" />
</svg>