<?xml version="1.0" encoding="utf-8"?>
<svg version="1.1" xmlns:xlink="http://www.w3.org/1999/xlink" width="12px" height="12px" viewBox="1131 123  12 12" xmlns="http://www.w3.org/2000/svg">
  <path d="M 1131.5 126  A 2.5 2.5 0 0 1 1134 123.5 L 1140 123.5  A 2.5 2.5 0 0 1 1142.5 126 L 1142.5 132  A 2.5 2.5 0 0 1 1140 134.5 L 1134 134.5  A 2.5 2.5 0 0 1 1131.5 132 L 1131.5 126  Z " fill-rule="nonzero" fill="#ffffff" stroke="none" />
  <path d="M 1131.5 126  A 2.5 2.5 0 0 1 1134 123.5 L 1140 123.5  A 2.5 2.5 0 0 1 1142.5 126 L 1142.5 132  A 2.5 2.5 0 0 1 1140 134.5 L 1134 134.5  A 2.5 2.5 0 0 1 1131.5 132 L 1131.5 126  Z " stroke-width="1" stroke="#1e5df8" fill="none" />
  <path d="M 1133.57142857143 129  L 1136.14285714286 131.571428571429  L 1140.42857142857 125.571428571429  " stroke-width="2.57142857142857" stroke="#1e5df8" fill="none" />
</svg>