<?xml version="1.0" encoding="utf-8"?>
<svg version="1.1" xmlns:xlink="http://www.w3.org/1999/xlink" width="12px" height="12px" viewBox="1131 70  12 12" xmlns="http://www.w3.org/2000/svg">
  <path d="M 1131.5 73  A 2.5 2.5 0 0 1 1134 70.5 L 1140 70.5  A 2.5 2.5 0 0 1 1142.5 73 L 1142.5 79  A 2.5 2.5 0 0 1 1140 81.5 L 1134 81.5  A 2.5 2.5 0 0 1 1131.5 79 L 1131.5 73  Z " fill-rule="nonzero" fill="#f0f0f0" stroke="none" />
  <path d="M 1131.5 73  A 2.5 2.5 0 0 1 1134 70.5 L 1140 70.5  A 2.5 2.5 0 0 1 1142.5 73 L 1142.5 79  A 2.5 2.5 0 0 1 1140 81.5 L 1134 81.5  A 2.5 2.5 0 0 1 1131.5 79 L 1131.5 73  Z " stroke-width="1" stroke="#d7d7d7" fill="none" />
  <path d="M 1133.57142857143 76  L 1136.14285714286 78.5714285714286  L 1140.42857142857 72.5714285714286  " stroke-width="2.57142857142857" stroke="#d7d7d7" fill="none" />
</svg>