<?xml version="1.0" encoding="utf-8"?>
<svg version="1.1" xmlns:xlink="http://www.w3.org/1999/xlink" width="12px" height="12px" viewBox="46 43  12 12" xmlns="http://www.w3.org/2000/svg">
  <path d="M 46.5 46  A 2.5 2.5 0 0 1 49 43.5 L 55 43.5  A 2.5 2.5 0 0 1 57.5 46 L 57.5 52  A 2.5 2.5 0 0 1 55 54.5 L 49 54.5  A 2.5 2.5 0 0 1 46.5 52 L 46.5 46  Z " fill-rule="nonzero" fill="#f0f0f0" stroke="none" />
  <path d="M 46.5 46  A 2.5 2.5 0 0 1 49 43.5 L 55 43.5  A 2.5 2.5 0 0 1 57.5 46 L 57.5 52  A 2.5 2.5 0 0 1 55 54.5 L 49 54.5  A 2.5 2.5 0 0 1 46.5 52 L 46.5 46  Z " stroke-width="1" stroke="#d7d7d7" fill="none" />
</svg>