<?xml version="1.0" encoding="utf-8"?>
<svg version="1.1" xmlns:xlink="http://www.w3.org/1999/xlink" width="12px" height="12px" viewBox="1096 150  12 12" xmlns="http://www.w3.org/2000/svg">
  <path d="M 1096.5 153  A 2.5 2.5 0 0 1 1099 150.5 L 1105 150.5  A 2.5 2.5 0 0 1 1107.5 153 L 1107.5 159  A 2.5 2.5 0 0 1 1105 161.5 L 1099 161.5  A 2.5 2.5 0 0 1 1096.5 159 L 1096.5 153  Z " fill-rule="nonzero" fill="#f0f0f0" stroke="none" />
  <path d="M 1096.5 153  A 2.5 2.5 0 0 1 1099 150.5 L 1105 150.5  A 2.5 2.5 0 0 1 1107.5 153 L 1107.5 159  A 2.5 2.5 0 0 1 1105 161.5 L 1099 161.5  A 2.5 2.5 0 0 1 1096.5 159 L 1096.5 153  Z " stroke-width="1" stroke="#d7d7d7" fill="none" />
  <path d="M 1098.57142857143 156  L 1101.14285714286 158.571428571429  L 1105.42857142857 152.571428571429  " stroke-width="2.57142857142857" stroke="#d7d7d7" fill="none" />
</svg>