<?xml version="1.0" encoding="utf-8"?>
<svg version="1.1" xmlns:xlink="http://www.w3.org/1999/xlink" width="12px" height="12px" viewBox="1096 123  12 12" xmlns="http://www.w3.org/2000/svg">
  <path d="M 1096.5 126  A 2.5 2.5 0 0 1 1099 123.5 L 1105 123.5  A 2.5 2.5 0 0 1 1107.5 126 L 1107.5 132  A 2.5 2.5 0 0 1 1105 134.5 L 1099 134.5  A 2.5 2.5 0 0 1 1096.5 132 L 1096.5 126  Z " fill-rule="nonzero" fill="#ffffff" stroke="none" />
  <path d="M 1096.5 126  A 2.5 2.5 0 0 1 1099 123.5 L 1105 123.5  A 2.5 2.5 0 0 1 1107.5 126 L 1107.5 132  A 2.5 2.5 0 0 1 1105 134.5 L 1099 134.5  A 2.5 2.5 0 0 1 1096.5 132 L 1096.5 126  Z " stroke-width="1" stroke="#d7d7d7" fill="none" />
</svg>