<?xml version="1.0" encoding="utf-8"?>
<svg version="1.1" xmlns:xlink="http://www.w3.org/1999/xlink" width="12px" height="12px" viewBox="1096 70  12 12" xmlns="http://www.w3.org/2000/svg">
  <path d="M 1096.5 73  A 2.5 2.5 0 0 1 1099 70.5 L 1105 70.5  A 2.5 2.5 0 0 1 1107.5 73 L 1107.5 79  A 2.5 2.5 0 0 1 1105 81.5 L 1099 81.5  A 2.5 2.5 0 0 1 1096.5 79 L 1096.5 73  Z " fill-rule="nonzero" fill="#ffffff" stroke="none" />
  <path d="M 1096.5 73  A 2.5 2.5 0 0 1 1099 70.5 L 1105 70.5  A 2.5 2.5 0 0 1 1107.5 73 L 1107.5 79  A 2.5 2.5 0 0 1 1105 81.5 L 1099 81.5  A 2.5 2.5 0 0 1 1096.5 79 L 1096.5 73  Z " stroke-width="1" stroke="#1e5df8" fill="none" />
  <path d="M 1098.57142857143 76  L 1101.14285714286 78.5714285714286  L 1105.42857142857 72.5714285714286  " stroke-width="2.57142857142857" stroke="#1e5df8" fill="none" />
</svg>