<?xml version="1.0" encoding="utf-8"?>
<svg version="1.1" xmlns:xlink="http://www.w3.org/1999/xlink" width="12px" height="12px" viewBox="1096 0  12 12" xmlns="http://www.w3.org/2000/svg">
  <path d="M 1096.5 3  A 2.5 2.5 0 0 1 1099 0.5 L 1105 0.5  A 2.5 2.5 0 0 1 1107.5 3 L 1107.5 9  A 2.5 2.5 0 0 1 1105 11.5 L 1099 11.5  A 2.5 2.5 0 0 1 1096.5 9 L 1096.5 3  Z " fill-rule="nonzero" fill="#ffffff" stroke="none" />
  <path d="M 1096.5 3  A 2.5 2.5 0 0 1 1099 0.5 L 1105 0.5  A 2.5 2.5 0 0 1 1107.5 3 L 1107.5 9  A 2.5 2.5 0 0 1 1105 11.5 L 1099 11.5  A 2.5 2.5 0 0 1 1096.5 9 L 1096.5 3  Z " stroke-width="1" stroke="#1e5df8" fill="none" />
  <path d="M 1098.57142857143 6  L 1101.14285714286 8.57142857142857  L 1105.42857142857 2.57142857142857  " stroke-width="2.57142857142857" stroke="#1e5df8" fill="none" />
</svg>