<?xml version="1.0" encoding="utf-8"?>
<svg version="1.1" xmlns:xlink="http://www.w3.org/1999/xlink" width="12px" height="12px" viewBox="1236 177  12 12" xmlns="http://www.w3.org/2000/svg">
  <path d="M 1236.5 180  A 2.5 2.5 0 0 1 1239 177.5 L 1245 177.5  A 2.5 2.5 0 0 1 1247.5 180 L 1247.5 186  A 2.5 2.5 0 0 1 1245 188.5 L 1239 188.5  A 2.5 2.5 0 0 1 1236.5 186 L 1236.5 180  Z " fill-rule="nonzero" fill="#f0f0f0" stroke="none" />
  <path d="M 1236.5 180  A 2.5 2.5 0 0 1 1239 177.5 L 1245 177.5  A 2.5 2.5 0 0 1 1247.5 180 L 1247.5 186  A 2.5 2.5 0 0 1 1245 188.5 L 1239 188.5  A 2.5 2.5 0 0 1 1236.5 186 L 1236.5 180  Z " stroke-width="1" stroke="#d7d7d7" fill="none" />
  <path d="M 1238.57142857143 183  L 1241.14285714286 185.571428571429  L 1245.42857142857 179.571428571429  " stroke-width="2.57142857142857" stroke="#d7d7d7" fill="none" />
</svg>