<?xml version="1.0" encoding="utf-8"?>
<svg version="1.1" xmlns:xlink="http://www.w3.org/1999/xlink" width="12px" height="12px" viewBox="1236 150  12 12" xmlns="http://www.w3.org/2000/svg">
  <path d="M 1236.5 153  A 2.5 2.5 0 0 1 1239 150.5 L 1245 150.5  A 2.5 2.5 0 0 1 1247.5 153 L 1247.5 159  A 2.5 2.5 0 0 1 1245 161.5 L 1239 161.5  A 2.5 2.5 0 0 1 1236.5 159 L 1236.5 153  Z " fill-rule="nonzero" fill="#ffffff" stroke="none" />
  <path d="M 1236.5 153  A 2.5 2.5 0 0 1 1239 150.5 L 1245 150.5  A 2.5 2.5 0 0 1 1247.5 153 L 1247.5 159  A 2.5 2.5 0 0 1 1245 161.5 L 1239 161.5  A 2.5 2.5 0 0 1 1236.5 159 L 1236.5 153  Z " stroke-width="1" stroke="#1e5df8" fill="none" />
  <path d="M 1238.57142857143 156  L 1241.14285714286 158.571428571429  L 1245.42857142857 152.571428571429  " stroke-width="2.57142857142857" stroke="#1e5df8" fill="none" />
</svg>