<?xml version="1.0" encoding="utf-8"?>
<svg version="1.1" xmlns:xlink="http://www.w3.org/1999/xlink" width="12px" height="12px" viewBox="1236 43  12 12" xmlns="http://www.w3.org/2000/svg">
  <path d="M 1236.5 46  A 2.5 2.5 0 0 1 1239 43.5 L 1245 43.5  A 2.5 2.5 0 0 1 1247.5 46 L 1247.5 52  A 2.5 2.5 0 0 1 1245 54.5 L 1239 54.5  A 2.5 2.5 0 0 1 1236.5 52 L 1236.5 46  Z " fill-rule="nonzero" fill="#ffffff" stroke="none" />
  <path d="M 1236.5 46  A 2.5 2.5 0 0 1 1239 43.5 L 1245 43.5  A 2.5 2.5 0 0 1 1247.5 46 L 1247.5 52  A 2.5 2.5 0 0 1 1245 54.5 L 1239 54.5  A 2.5 2.5 0 0 1 1236.5 52 L 1236.5 46  Z " stroke-width="1" stroke="#d7d7d7" fill="none" />
</svg>