<?xml version="1.0" encoding="utf-8"?>
<svg version="1.1" xmlns:xlink="http://www.w3.org/1999/xlink" width="12px" height="12px" viewBox="1201 177  12 12" xmlns="http://www.w3.org/2000/svg">
  <path d="M 1201.5 180  A 2.5 2.5 0 0 1 1204 177.5 L 1210 177.5  A 2.5 2.5 0 0 1 1212.5 180 L 1212.5 186  A 2.5 2.5 0 0 1 1210 188.5 L 1204 188.5  A 2.5 2.5 0 0 1 1201.5 186 L 1201.5 180  Z " fill-rule="nonzero" fill="#f0f0f0" stroke="none" />
  <path d="M 1201.5 180  A 2.5 2.5 0 0 1 1204 177.5 L 1210 177.5  A 2.5 2.5 0 0 1 1212.5 180 L 1212.5 186  A 2.5 2.5 0 0 1 1210 188.5 L 1204 188.5  A 2.5 2.5 0 0 1 1201.5 186 L 1201.5 180  Z " stroke-width="1" stroke="#d7d7d7" fill="none" />
</svg>