<?xml version="1.0" encoding="utf-8"?>
<svg version="1.1" xmlns:xlink="http://www.w3.org/1999/xlink" width="12px" height="12px" viewBox="1201 0  12 12" xmlns="http://www.w3.org/2000/svg">
  <path d="M 1201.5 3  A 2.5 2.5 0 0 1 1204 0.5 L 1210 0.5  A 2.5 2.5 0 0 1 1212.5 3 L 1212.5 9  A 2.5 2.5 0 0 1 1210 11.5 L 1204 11.5  A 2.5 2.5 0 0 1 1201.5 9 L 1201.5 3  Z " fill-rule="nonzero" fill="#f0f0f0" stroke="none" />
  <path d="M 1201.5 3  A 2.5 2.5 0 0 1 1204 0.5 L 1210 0.5  A 2.5 2.5 0 0 1 1212.5 3 L 1212.5 9  A 2.5 2.5 0 0 1 1210 11.5 L 1204 11.5  A 2.5 2.5 0 0 1 1201.5 9 L 1201.5 3  Z " stroke-width="1" stroke="#d7d7d7" fill="none" />
  <path d="M 1203.57142857143 6  L 1206.14285714286 8.57142857142857  L 1210.42857142857 2.57142857142857  " stroke-width="2.57142857142857" stroke="#d7d7d7" fill="none" />
</svg>