<?xml version="1.0" encoding="utf-8"?>
<svg version="1.1" xmlns:xlink="http://www.w3.org/1999/xlink" width="12px" height="12px" viewBox="301 284  12 12" xmlns="http://www.w3.org/2000/svg">
  <path d="M 301.5 287  A 2.5 2.5 0 0 1 304 284.5 L 310 284.5  A 2.5 2.5 0 0 1 312.5 287 L 312.5 293  A 2.5 2.5 0 0 1 310 295.5 L 304 295.5  A 2.5 2.5 0 0 1 301.5 293 L 301.5 287  Z " fill-rule="nonzero" fill="#f0f0f0" stroke="none" />
  <path d="M 301.5 287  A 2.5 2.5 0 0 1 304 284.5 L 310 284.5  A 2.5 2.5 0 0 1 312.5 287 L 312.5 293  A 2.5 2.5 0 0 1 310 295.5 L 304 295.5  A 2.5 2.5 0 0 1 301.5 293 L 301.5 287  Z " stroke-width="1" stroke="#d7d7d7" fill="none" />
  <path d="M 303.571428571429 290  L 306.142857142857 292.571428571429  L 310.428571428571 286.571428571429  " stroke-width="2.57142857142857" stroke="#d7d7d7" fill="none" />
</svg>