<?xml version="1.0" encoding="utf-8"?>
<svg version="1.1" xmlns:xlink="http://www.w3.org/1999/xlink" width="12px" height="12px" viewBox="301 204  12 12" xmlns="http://www.w3.org/2000/svg">
  <path d="M 301.5 207  A 2.5 2.5 0 0 1 304 204.5 L 310 204.5  A 2.5 2.5 0 0 1 312.5 207 L 312.5 213  A 2.5 2.5 0 0 1 310 215.5 L 304 215.5  A 2.5 2.5 0 0 1 301.5 213 L 301.5 207  Z " fill-rule="nonzero" fill="#f0f0f0" stroke="none" />
  <path d="M 301.5 207  A 2.5 2.5 0 0 1 304 204.5 L 310 204.5  A 2.5 2.5 0 0 1 312.5 207 L 312.5 213  A 2.5 2.5 0 0 1 310 215.5 L 304 215.5  A 2.5 2.5 0 0 1 301.5 213 L 301.5 207  Z " stroke-width="1" stroke="#d7d7d7" fill="none" />
</svg>