<?xml version="1.0" encoding="utf-8"?>
<svg version="1.1" xmlns:xlink="http://www.w3.org/1999/xlink" width="12px" height="12px" viewBox="116 123  12 12" xmlns="http://www.w3.org/2000/svg">
  <path d="M 116.5 126  A 2.5 2.5 0 0 1 119 123.5 L 125 123.5  A 2.5 2.5 0 0 1 127.5 126 L 127.5 132  A 2.5 2.5 0 0 1 125 134.5 L 119 134.5  A 2.5 2.5 0 0 1 116.5 132 L 116.5 126  Z " fill-rule="nonzero" fill="#ffffff" stroke="none" />
  <path d="M 116.5 126  A 2.5 2.5 0 0 1 119 123.5 L 125 123.5  A 2.5 2.5 0 0 1 127.5 126 L 127.5 132  A 2.5 2.5 0 0 1 125 134.5 L 119 134.5  A 2.5 2.5 0 0 1 116.5 132 L 116.5 126  Z " stroke-width="1" stroke="#d7d7d7" fill="none" />
</svg>