<?xml version="1.0" encoding="utf-8"?>
<svg version="1.1" xmlns:xlink="http://www.w3.org/1999/xlink" width="12px" height="12px" viewBox="186 177  12 12" xmlns="http://www.w3.org/2000/svg">
  <path d="M 186.5 180  A 2.5 2.5 0 0 1 189 177.5 L 195 177.5  A 2.5 2.5 0 0 1 197.5 180 L 197.5 186  A 2.5 2.5 0 0 1 195 188.5 L 189 188.5  A 2.5 2.5 0 0 1 186.5 186 L 186.5 180  Z " fill-rule="nonzero" fill="#ffffff" stroke="none" />
  <path d="M 186.5 180  A 2.5 2.5 0 0 1 189 177.5 L 195 177.5  A 2.5 2.5 0 0 1 197.5 180 L 197.5 186  A 2.5 2.5 0 0 1 195 188.5 L 189 188.5  A 2.5 2.5 0 0 1 186.5 186 L 186.5 180  Z " stroke-width="1" stroke="#1e5df8" fill="none" />
  <path d="M 188.571428571429 183  L 191.142857142857 185.571428571429  L 195.428571428571 179.571428571429  " stroke-width="2.57142857142857" stroke="#1e5df8" fill="none" />
</svg>