<?xml version="1.0" encoding="utf-8"?>
<svg version="1.1" xmlns:xlink="http://www.w3.org/1999/xlink" width="12px" height="12px" viewBox="151 177  12 12" xmlns="http://www.w3.org/2000/svg">
  <path d="M 151.5 180  A 2.5 2.5 0 0 1 154 177.5 L 160 177.5  A 2.5 2.5 0 0 1 162.5 180 L 162.5 186  A 2.5 2.5 0 0 1 160 188.5 L 154 188.5  A 2.5 2.5 0 0 1 151.5 186 L 151.5 180  Z " fill-rule="nonzero" fill="#ffffff" stroke="none" />
  <path d="M 151.5 180  A 2.5 2.5 0 0 1 154 177.5 L 160 177.5  A 2.5 2.5 0 0 1 162.5 180 L 162.5 186  A 2.5 2.5 0 0 1 160 188.5 L 154 188.5  A 2.5 2.5 0 0 1 151.5 186 L 151.5 180  Z " stroke-width="1" stroke="#d7d7d7" fill="none" />
</svg>