<?xml version="1.0" encoding="utf-8"?>
<svg version="1.1" xmlns:xlink="http://www.w3.org/1999/xlink" width="12px" height="12px" viewBox="151 0  12 12" xmlns="http://www.w3.org/2000/svg">
  <path d="M 151.5 3  A 2.5 2.5 0 0 1 154 0.5 L 160 0.5  A 2.5 2.5 0 0 1 162.5 3 L 162.5 9  A 2.5 2.5 0 0 1 160 11.5 L 154 11.5  A 2.5 2.5 0 0 1 151.5 9 L 151.5 3  Z " fill-rule="nonzero" fill="#ffffff" stroke="none" />
  <path d="M 151.5 3  A 2.5 2.5 0 0 1 154 0.5 L 160 0.5  A 2.5 2.5 0 0 1 162.5 3 L 162.5 9  A 2.5 2.5 0 0 1 160 11.5 L 154 11.5  A 2.5 2.5 0 0 1 151.5 9 L 151.5 3  Z " stroke-width="1" stroke="#1e5df8" fill="none" />
  <path d="M 153.571428571429 6  L 156.142857142857 8.57142857142857  L 160.428571428571 2.57142857142857  " stroke-width="2.57142857142857" stroke="#1e5df8" fill="none" />
</svg>