<?xml version="1.0" encoding="utf-8"?>
<svg version="1.1" xmlns:xlink="http://www.w3.org/1999/xlink" width="12px" height="12px" viewBox="221 177  12 12" xmlns="http://www.w3.org/2000/svg">
  <path d="M 221.5 180  A 2.5 2.5 0 0 1 224 177.5 L 230 177.5  A 2.5 2.5 0 0 1 232.5 180 L 232.5 186  A 2.5 2.5 0 0 1 230 188.5 L 224 188.5  A 2.5 2.5 0 0 1 221.5 186 L 221.5 180  Z " fill-rule="nonzero" fill="#ffffff" stroke="none" />
  <path d="M 221.5 180  A 2.5 2.5 0 0 1 224 177.5 L 230 177.5  A 2.5 2.5 0 0 1 232.5 180 L 232.5 186  A 2.5 2.5 0 0 1 230 188.5 L 224 188.5  A 2.5 2.5 0 0 1 221.5 186 L 221.5 180  Z " stroke-width="1" stroke="#d7d7d7" fill="none" />
</svg>