<?xml version="1.0" encoding="utf-8"?>
<svg version="1.1" xmlns:xlink="http://www.w3.org/1999/xlink" width="12px" height="12px" viewBox="11 177  12 12" xmlns="http://www.w3.org/2000/svg">
  <path d="M 11.5 180  A 2.5 2.5 0 0 1 14 177.5 L 20 177.5  A 2.5 2.5 0 0 1 22.5 180 L 22.5 186  A 2.5 2.5 0 0 1 20 188.5 L 14 188.5  A 2.5 2.5 0 0 1 11.5 186 L 11.5 180  Z " fill-rule="nonzero" fill="#f0f0f0" stroke="none" />
  <path d="M 11.5 180  A 2.5 2.5 0 0 1 14 177.5 L 20 177.5  A 2.5 2.5 0 0 1 22.5 180 L 22.5 186  A 2.5 2.5 0 0 1 20 188.5 L 14 188.5  A 2.5 2.5 0 0 1 11.5 186 L 11.5 180  Z " stroke-width="1" stroke="#d7d7d7" fill="none" />
  <path d="M 13.5714285714286 183  L 16.1428571428571 185.571428571429  L 20.4285714285714 179.571428571429  " stroke-width="2.57142857142857" stroke="#d7d7d7" fill="none" />
</svg>