<?xml version="1.0" encoding="utf-8"?>
<svg version="1.1" xmlns:xlink="http://www.w3.org/1999/xlink" width="12px" height="12px" viewBox="221 150  12 12" xmlns="http://www.w3.org/2000/svg">
  <path d="M 221.5 153  A 2.5 2.5 0 0 1 224 150.5 L 230 150.5  A 2.5 2.5 0 0 1 232.5 153 L 232.5 159  A 2.5 2.5 0 0 1 230 161.5 L 224 161.5  A 2.5 2.5 0 0 1 221.5 159 L 221.5 153  Z " fill-rule="nonzero" fill="#ffffff" stroke="none" />
  <path d="M 221.5 153  A 2.5 2.5 0 0 1 224 150.5 L 230 150.5  A 2.5 2.5 0 0 1 232.5 153 L 232.5 159  A 2.5 2.5 0 0 1 230 161.5 L 224 161.5  A 2.5 2.5 0 0 1 221.5 159 L 221.5 153  Z " stroke-width="1" stroke="#1e5df8" fill="none" />
  <path d="M 223.571428571429 156  L 226.142857142857 158.571428571429  L 230.428571428571 152.571428571429  " stroke-width="2.57142857142857" stroke="#1e5df8" fill="none" />
</svg>