<?xml version="1.0" encoding="utf-8"?>
<svg version="1.1" xmlns:xlink="http://www.w3.org/1999/xlink" width="12px" height="12px" viewBox="291 97  12 12" xmlns="http://www.w3.org/2000/svg">
  <path d="M 291.5 100  A 2.5 2.5 0 0 1 294 97.5 L 300 97.5  A 2.5 2.5 0 0 1 302.5 100 L 302.5 106  A 2.5 2.5 0 0 1 300 108.5 L 294 108.5  A 2.5 2.5 0 0 1 291.5 106 L 291.5 100  Z " fill-rule="nonzero" fill="#ffffff" stroke="none" />
  <path d="M 291.5 100  A 2.5 2.5 0 0 1 294 97.5 L 300 97.5  A 2.5 2.5 0 0 1 302.5 100 L 302.5 106  A 2.5 2.5 0 0 1 300 108.5 L 294 108.5  A 2.5 2.5 0 0 1 291.5 106 L 291.5 100  Z " stroke-width="1" stroke="#1e5df8" fill="none" />
  <path d="M 293.571428571429 103  L 296.142857142857 105.571428571429  L 300.428571428571 99.5714285714286  " stroke-width="2.57142857142857" stroke="#1e5df8" fill="none" />
</svg>