<?xml version="1.0" encoding="utf-8"?>
<svg version="1.1" xmlns:xlink="http://www.w3.org/1999/xlink" width="12px" height="12px" viewBox="291 70  12 12" xmlns="http://www.w3.org/2000/svg">
  <path d="M 291.5 73  A 2.5 2.5 0 0 1 294 70.5 L 300 70.5  A 2.5 2.5 0 0 1 302.5 73 L 302.5 79  A 2.5 2.5 0 0 1 300 81.5 L 294 81.5  A 2.5 2.5 0 0 1 291.5 79 L 291.5 73  Z " fill-rule="nonzero" fill="#f0f0f0" stroke="none" />
  <path d="M 291.5 73  A 2.5 2.5 0 0 1 294 70.5 L 300 70.5  A 2.5 2.5 0 0 1 302.5 73 L 302.5 79  A 2.5 2.5 0 0 1 300 81.5 L 294 81.5  A 2.5 2.5 0 0 1 291.5 79 L 291.5 73  Z " stroke-width="1" stroke="#d7d7d7" fill="none" />
  <path d="M 293.571428571429 76  L 296.142857142857 78.5714285714286  L 300.428571428571 72.5714285714286  " stroke-width="2.57142857142857" stroke="#d7d7d7" fill="none" />
</svg>