<?xml version="1.0" encoding="utf-8"?>
<svg version="1.1" xmlns:xlink="http://www.w3.org/1999/xlink" width="12px" height="12px" viewBox="256 0  12 12" xmlns="http://www.w3.org/2000/svg">
  <path d="M 256.5 3  A 2.5 2.5 0 0 1 259 0.5 L 265 0.5  A 2.5 2.5 0 0 1 267.5 3 L 267.5 9  A 2.5 2.5 0 0 1 265 11.5 L 259 11.5  A 2.5 2.5 0 0 1 256.5 9 L 256.5 3  Z " fill-rule="nonzero" fill="#f0f0f0" stroke="none" />
  <path d="M 256.5 3  A 2.5 2.5 0 0 1 259 0.5 L 265 0.5  A 2.5 2.5 0 0 1 267.5 3 L 267.5 9  A 2.5 2.5 0 0 1 265 11.5 L 259 11.5  A 2.5 2.5 0 0 1 256.5 9 L 256.5 3  Z " stroke-width="1" stroke="#d7d7d7" fill="none" />
  <path d="M 258.571428571429 6  L 261.142857142857 8.57142857142857  L 265.428571428571 2.57142857142857  " stroke-width="2.57142857142857" stroke="#d7d7d7" fill="none" />
</svg>