<?xml version="1.0" encoding="utf-8"?>
<svg version="1.1" xmlns:xlink="http://www.w3.org/1999/xlink" width="12px" height="12px" viewBox="326 0  12 12" xmlns="http://www.w3.org/2000/svg">
  <path d="M 326.5 3  A 2.5 2.5 0 0 1 329 0.5 L 335 0.5  A 2.5 2.5 0 0 1 337.5 3 L 337.5 9  A 2.5 2.5 0 0 1 335 11.5 L 329 11.5  A 2.5 2.5 0 0 1 326.5 9 L 326.5 3  Z " fill-rule="nonzero" fill="#f0f0f0" stroke="none" />
  <path d="M 326.5 3  A 2.5 2.5 0 0 1 329 0.5 L 335 0.5  A 2.5 2.5 0 0 1 337.5 3 L 337.5 9  A 2.5 2.5 0 0 1 335 11.5 L 329 11.5  A 2.5 2.5 0 0 1 326.5 9 L 326.5 3  Z " stroke-width="1" stroke="#d7d7d7" fill="none" />
  <path d="M 328.571428571429 6  L 331.142857142857 8.57142857142857  L 335.428571428571 2.57142857142857  " stroke-width="2.57142857142857" stroke="#d7d7d7" fill="none" />
</svg>