<?xml version="1.0" encoding="utf-8"?>
<svg version="1.1" xmlns:xlink="http://www.w3.org/1999/xlink" width="12px" height="12px" viewBox="396 177  12 12" xmlns="http://www.w3.org/2000/svg">
  <path d="M 396.5 180  A 2.5 2.5 0 0 1 399 177.5 L 405 177.5  A 2.5 2.5 0 0 1 407.5 180 L 407.5 186  A 2.5 2.5 0 0 1 405 188.5 L 399 188.5  A 2.5 2.5 0 0 1 396.5 186 L 396.5 180  Z " fill-rule="nonzero" fill="#f0f0f0" stroke="none" />
  <path d="M 396.5 180  A 2.5 2.5 0 0 1 399 177.5 L 405 177.5  A 2.5 2.5 0 0 1 407.5 180 L 407.5 186  A 2.5 2.5 0 0 1 405 188.5 L 399 188.5  A 2.5 2.5 0 0 1 396.5 186 L 396.5 180  Z " stroke-width="1" stroke="#d7d7d7" fill="none" />
  <path d="M 398.571428571429 183  L 401.142857142857 185.571428571429  L 405.428571428571 179.571428571429  " stroke-width="2.57142857142857" stroke="#d7d7d7" fill="none" />
</svg>