<?xml version="1.0" encoding="utf-8"?>
<svg version="1.1" xmlns:xlink="http://www.w3.org/1999/xlink" width="12px" height="12px" viewBox="396 150  12 12" xmlns="http://www.w3.org/2000/svg">
  <path d="M 396.5 153  A 2.5 2.5 0 0 1 399 150.5 L 405 150.5  A 2.5 2.5 0 0 1 407.5 153 L 407.5 159  A 2.5 2.5 0 0 1 405 161.5 L 399 161.5  A 2.5 2.5 0 0 1 396.5 159 L 396.5 153  Z " fill-rule="nonzero" fill="#ffffff" stroke="none" />
  <path d="M 396.5 153  A 2.5 2.5 0 0 1 399 150.5 L 405 150.5  A 2.5 2.5 0 0 1 407.5 153 L 407.5 159  A 2.5 2.5 0 0 1 405 161.5 L 399 161.5  A 2.5 2.5 0 0 1 396.5 159 L 396.5 153  Z " stroke-width="1" stroke="#d7d7d7" fill="none" />
</svg>