<?xml version="1.0" encoding="utf-8"?>
<svg version="1.1" xmlns:xlink="http://www.w3.org/1999/xlink" width="12px" height="12px" viewBox="11 70  12 12" xmlns="http://www.w3.org/2000/svg">
  <path d="M 11.5 73  A 2.5 2.5 0 0 1 14 70.5 L 20 70.5  A 2.5 2.5 0 0 1 22.5 73 L 22.5 79  A 2.5 2.5 0 0 1 20 81.5 L 14 81.5  A 2.5 2.5 0 0 1 11.5 79 L 11.5 73  Z " fill-rule="nonzero" fill="#f0f0f0" stroke="none" />
  <path d="M 11.5 73  A 2.5 2.5 0 0 1 14 70.5 L 20 70.5  A 2.5 2.5 0 0 1 22.5 73 L 22.5 79  A 2.5 2.5 0 0 1 20 81.5 L 14 81.5  A 2.5 2.5 0 0 1 11.5 79 L 11.5 73  Z " stroke-width="1" stroke="#d7d7d7" fill="none" />
  <path d="M 13.5714285714286 76  L 16.1428571428571 78.5714285714286  L 20.4285714285714 72.5714285714286  " stroke-width="2.57142857142857" stroke="#d7d7d7" fill="none" />
</svg>